<?xml version="1.0" encoding="UTF-8" standalone="yes"?>
<svg version="1.2" baseProfile="tiny-ps" viewBox="0 0 300 300" xmlns="http://www.w3.org/2000/svg">
  <title>bimi-svg-tiny-12-ps</title>
  <g>
    <g fill="#fefefe" transform="matrix(.1 0 0 -.1 0 300)">
      <path d="M0 1500V0h3000v3000H0V1500z"/>
    </g>
    <g fill="#d6ded7" transform="matrix(.1 0 0 -.1 0 300)">
      <path d="m298 1989-18-10 1-329v-330h100l-5 108c-4 106 1 162 13 162 3 0 4-22 3-50l-4-50h23l-11-19-10-20v-131h90v659l-18 10-18 10H315l-17-10zm94-284c-2-14-6-25-8-25s-4 11-4 25v25h17l-5-25zm203-65-7-11 21-6 21-5v-240l-20-5c-11-3-20-10-20-15v-10l111 4 111 3 19 24 19 23v77l-24 19-25 19 16 16 16 15v54l-22 21-22 22-93 3-94 4-7-12zm156-20 19-11v-55l-12-12-12-12h-56v43c0 59 16 71 61 47zm23-142c9-12 16-32 16-43s-7-31-16-43l-15-22h-57l-6 16c-3 9-6 38-6 65v49h69l15-22zm73 154 22-17 3-108 3-109 28-24 28-24h127l23 19 24 19 5 119 5 118h50l3-123 3-124-21-5c-11-3-20-9-20-14v-9h140v9c0 5-9 11-20 14l-20 5v114l12-4c7-3 28-35 48-71l35-67h95v8c0 4-9 12-21 17l-21 10-30 56-31 55 27 27 26 26v48l-25 27-24 26h-281v-10c0-5 7-10 15-10h15l11-27 11-28-4-82-4-82-19-21-18-20h-73l-19 14-19 13-4 91c-2 50-2 103 2 117l6 25h15c8 0 15 5 15 10v10H825l22-18zm437-18c38-37 14-104-36-104h-18v120h19c11 0 27-7 35-16zm186 15c-19-11-43-32-54-46l-19-25-5-43-4-43 21-39c13-21 34-47 49-58l27-20 67-3 68-4 25 16 25 16v25c0 13-4 26-9 30l-10 6-10-20c-6-11-18-27-27-35l-15-16h-71l-29 31-28 30-7 35-6 34 6 34 7 35 28 30 29 31h73l25-25c14-14 29-25 34-25 13 0 13 26 0 51l-11 19h-144l-35-21zm210 12c0-5 9-13 20-16l20-6v-241l-20-5c-11-3-20-9-20-14v-9h130v10c0 6-7 10-15 10h-15v130h120v-122l-20-5c-11-3-20-9-20-14v-9l188 2 187 3 3 38 3 37h-9c-5 0-17-11-25-24l-16-24-26-6-25-6-20 10-20 11v110l33-3 32-3 10-23c5-12 14-21 18-19l9 3 4 52 4 52h-8c-4 0-15-9-25-20l-17-20h-60v100h89l11-20c6-11 15-20 20-20h10v70h-370v-9c0-5 9-11 21-14l20-5-3-49-3-48-57-3-58-3v102l15 5c8 4 15 10 15 15v9h-130v-9zm355-141v-125h-70l-3 114c-1 63 0 121 3 129l5 13 32-3 33-3v-125zm215 141c0-5 9-11 20-14l20-5v-244l-20-5c-11-3-20-9-20-14v-9h438l6 16c3 9 6 27 6 40v24h-10c-5 0-14-9-20-20l-11-21-26-10-26-10-18 6-19 6v241l20 5c11 3 20 9 20 14v9h-140v-9c0-5 9-11 20-14l21-5-3-124-3-123-19-3-19-4 7 25 6 26-9 6-10 5-13-19c-8-11-26-25-40-32l-27-12-15 6-16 6v243l20 5c11 3 20 9 20 14v9h-140v-9zM594 1308l-6-9 21-6 21-5v-246l-20-5c-11-3-20-10-20-16v-11h109l6 11 7 10-21 6-21 5-6 22c-2 11-4 58-2 103l3 83 95-120 95-120h25v280h50v-191l14-33 14-33 32-12c42-14 102-14 133 0l25 11 11 25 11 24v210l28-3 27-3 3-117 3-117-21-11c-11-6-20-15-20-20v-10h129l6 11 7 10-21 6-21 5v120l11-4c6-2 27-35 47-73l37-70 39-3 39-3 10 10 10 10 20-11 20-10 46 5 45 5 23 27 23 26v67l-18 21c-9 12-40 34-67 49l-50 27-3 16-3 17 16 16c9 9 25 16 36 16h20l17-30c22-39 32-38 32 5v34l-34 7-34 6-30-7-30-6-18-20-18-20v-67l14-17c8-9 36-28 62-41l49-25 8-22 9-22-9-17c-5-9-18-20-29-23l-21-7-25 17c-14 9-29 27-34 41-5 13-14 24-20 24h-10v-70h-26l-36 63-36 62 18 9c10 5 24 21 30 35l11 27-10 25c-5 14-17 31-26 39l-18 15-134 1-134 1-5-9-6-9 21-6 21-5v-226l-16-13-17-14h-77l-17 18-18 18-3 105-4 105 21 6 21 5v24l-110 1-110 1v-28h40v-85c0-47-1-85-3-85s-38 44-80 98l-77 99-45 1h-45l-6-10zm754-30 12-12v-62l-12-12c-7-7-22-12-35-12h-23v110h23c13 0 28-5 35-12zm315 29-5-8 21-6 21-5v-246l-20-5c-11-3-20-10-20-16v-12l112 3 111 3 10 28 9 28-6 16-7 16-27-32-27-33-35 4-35 3-3 58-3 57h61l12-20c7-11 16-20 20-20h8l-1 58v57l-16-22-15-23h-68v100h71l24-26 25-27 6 16c3 9 4 26 2 38l-3 23h-108l-109 1-5-8zm247 1c0-5 9-12 20-15l20-5v-246l-20-5c-11-3-20-10-20-16v-11h129l6 11 7 10-21 6-21 5v120l10-4c6-2 28-35 49-73l37-70 38-3 39-3 11 11 11 11-21 5-21 5-35 62-36 62 18 9c10 5 24 21 30 35l11 27-10 25c-5 14-17 31-26 39l-17 14-94 2-94 2v-10zm158-30 12-12v-62l-12-12c-7-7-22-12-35-12h-23v110h23c13 0 28-5 35-12zm67 34c-11-11-4-20 18-26l22-6 48-73 47-73v-86l-20-5-20-5v-28h129l6 11 7 10-21 6-21 5v119l41 60 40 60 25 10 25 9-5 8-5 9-53-1-53-1 2-10c1-5 9-12 17-15l16-5-33-54-34-53-36 53-36 54 15 5c9 3 15 10 15 15l-1 10-65 1c-36 0-67-1-70-4zM280 1172v-138l12-12 12-12h154l10 13 11 12v138l1 137h-92l5-22c3-13 9-33 12-46l7-22-16 6-16 6v-37l-9 13c-8 14-7 40 5 80l6 22H280v-138zm61 11c-12-20-14-14-5 12 4 9 9 14 11 11 3-2 0-13-6-23zm2054-103v-70h41l-4 60-4 60h42v-96l-12-12-12-12h52l-6 45c-2 25-3 45 0 45 2 0 19-20 38-45 37-50 50-56 50-23v22l20-22 21-22 54 1 55 2v29l-15-6-15-5v22l-21-19-20-18-17 10-17 11-3 36-3 36 21 11 22 12 19-18 19-17v43h-79l-22-27-22-28 6 33 7 32h-20c-10 0-22-4-25-10l-6-10h21v-32l-1-33-15 20c-9 11-22 29-29 39l-14 20-53 3-53 3v-70zm-1895-15-12-14 4-18 3-18h60l3 18 4 18-12 14c-7 8-18 15-25 15s-18-7-25-15z"/>
    </g>
    <g fill="#adbdaf" transform="matrix(.1 0 0 -.1 0 300)">
      <path d="m292 1978-12-12v-257l10-20 11-19h-21v-76l12-12 12-12h-12c-7 0-12-5-12-11v-11l12 4 12 4 18-18c10-10 18-26 18-35l-1-18-15 28-15 27h-30l3-107 3-108h90v35c0 19-4 48-8 63l-8 29 11-7 12-7-8 48c-3 27-11 57-16 66l-8 18 15-6 15-6v43l9-6 10-6-5-52-6-52 22 25 21 25-17-35-17-35-5-73-5-73 44 3 44 3 3 129 3 128-18-6-17-7 16 18 16 18 1 179 1 179-11 13-11 14H304l-12-12zm99-162v-76l10 5 9 6-10-26c-6-15-10-38-10-51v-25l-9 5-9 6 5 39 5 38-11 22-12 21h24l-6 40c-5 39 1 85 10 77 2-3 4-39 4-81zm-63-191c-3-3-9 2-12 12l-7 18 12-12c7-7 10-15 7-18zm122-69c0-3-4-8-10-11l-10-6v10c0 6 5 11 10 11 6 0 10-2 10-4zm152 85-14-8 21-6 21-5v-252h-15c-8 0-15-4-15-10v-10h192l29 29 29 29v62l-20 20c-11 11-26 20-32 20h-13l23 18 24 18-4 35-3 34-35 17-35 18H615l-13-9zm163-35 16-23-10-25c-10-26-29-38-62-38h-19v110h60l15-24zm7-123 18-16v-64l-19-17-19-17-29 3-28 3-3 63-3 62h64l19-17zm68 158c0-5 9-11 20-14l20-5v-109l1-108 12-16c7-9 22-21 34-27l22-12h45c55 0 91 13 102 37 4 10 11 68 14 128l5 110h50l3-127 3-128h-15c-8 0-18-4-21-10l-6-10h131v10c0 6-7 10-15 10h-15v120h25l38-70 37-70h91l-6 10c-3 6-12 10-18 10h-13l-38 67-39 67 12 4c6 2 18 10 26 19l15 14v68l-26 20-27 21h-257v-9c0-5 9-11 21-14l21-6-4-110-3-110-17-17-16-17h-86l-18 23-18 22v210l20 5c11 3 20 9 20 14v9H840v-9zm454-33c21-29 20-57-1-80l-16-18h-47v120h49l15-22zm182 19c-22-12-49-35-60-50l-21-28v-96l29-37 29-38 33-14 33-14h45c25 0 56 4 69 9l24 10 7 26c10 41-1 43-33 5l-28-34h-72l-22 19c-11 11-27 32-35 47l-14 27v82l14 27c8 15 23 35 34 45l21 19 35 1 36 1 30-29 30-29v62l-16 6c-9 3-41 6-72 6h-57l-39-23zm204 14c0-5 9-11 20-14l20-5v-244l-20-5c-11-3-20-9-20-14v-9h130v9c0 5-9 11-20 14l-20 5v122h130v-130h-14c-8 0-18-4-21-10l-6-10h131v10c0 6-7 10-15 10h-15v260h15c8 0 15 5 15 10v10h-131l6-10c3-5 13-10 21-10h14v-110h-130v102l20 5c11 3 20 9 20 14v9h-130v-9zm330-1c0-5 6-10 14-10 21 0 26-23 26-130s-5-130-26-130c-8 0-14-4-14-10v-10h218l7 36 6 36-7 7-7 6-5-14c-2-7-13-22-24-33l-19-19-37 3-37 3-3 63-3 62h71l10-25c15-39 20-30 19 33v57l-16-22-15-23h-68v113l42-6 43-6 17-20c23-29 28-26 28 14v35h-220v-10zm240 1c0-5 9-11 20-14l20-5v-244l-20-5c-11-3-20-9-20-14v-9h438l5 33c2 17 3 34 1 36s-17-9-35-23l-32-27-26 3-26 3-3 128-3 127h16c8 0 15 5 15 10v10h-130v-20h40v-258l-20-5-20-5v70l-29-31-29-31h-24c-13 0-29 5-36 12l-12 12v228l20 5c11 3 20 9 20 14v9h-130v-9zm-719-332c-44-17-63-66-45-114l6-16 42-21c22-11 51-30 64-41l22-20v-17c0-22-31-50-56-50-26 0-48 18-67 55l-15 30-8-29-7-29 10-16c5-8 23-19 39-23l29-8 32 5 32 6 25 30 26 31v27c0 14-6 36-14 47l-14 20-51 24-52 24-5 23-6 23 12 15 12 15h47l15-16c9-8 16-22 16-30s5-14 10-14h10v60l-26 10c-31 12-51 12-83-1zm-1251-64c0-36 2-65 5-65 2 0 12 14 20 30l16 31 24 9 25 10v50h-90v-65zm110 56c0-5 5-22 11-38 6-15 10-29 10-30 0-2 6-20 13-41l14-38-13-29-13-30 5 40 5 40-11 29c-7 16-14 26-17 24-3-3-7-45-8-92-2-48-7-90-11-94l-8-7 6 30 6 31-9 14-9 14 10 12 10 12-5 29c-2 15-5 30-5 32-1 2-8-2-16-9l-14-12-7-34-6-34h-20l7 18c3 9 7 22 8 27 1 6 12 25 25 43l23 32h-13c-20 0-32-12-45-42-7-16-17-28-23-28h-10v-138l13-10 12-10 74-1 74-1 13 11 14 11v77l-10 6-10 6v65l-16 23-17 23 27-17 26-17v112h-90v-9zm-73-223-5-13-1 19c-1 11 2 17 5 13 3-3 4-12 1-19zm110-10-5-13-1 19c-1 11 2 17 5 13 3-3 4-12 1-19zm191 226 22-15v-215l-12-16c-7-9-20-18-28-21l-15-5 65-1h65l-23 9c-31 13-33 23-30 130l3 94 98-122c54-67 102-122 107-122h10v278l16 6 17 6 13-11 13-11 3-110 3-111 28-21 29-21h59l59 1 23 22 22 23 3 114 4 114 14 5c8 3 21 3 29 0l15-6v-249l-23-9-22-9h70l69-1-22 16-23 16 3 51 3 52h29l35-67 36-68h87l-20 18c-11 9-34 42-51 73l-31 56 25 17 25 16v70l-20 20-20 20h-285l25-13 25-13v-216l-24-19-23-19h-64l-20 14-19 14-3 114-4 114 24 11 23 12H805l22-9 21-9 7-63c4-35 5-78 3-96l-3-32-80 105-80 104-50 1h-49l22-16zm727-19 25-24v-19c0-37-30-58-77-53l-13 1v44c0 24 3 51 6 60l6 16h15c7 0 25-11 38-25zm333 23 22-11v-244l-22-11-23-11h116l117-1 4 35 4 35h-7c-4 0-14-11-23-25l-16-25h-90v120h69l6-20c3-11 11-20 16-20h9v50c0 52-5 60-24 35l-11-16-30-2-30-2-3 53-3 52h75l23-22 23-21v63l-112-1h-113l23-11zm250 0 22-11v-248l-22-9-23-9h70l69-1-22 16-23 16 3 51 3 52h29l35-67 36-68h87l-20 18c-11 9-34 42-51 73l-31 56 25 17 25 16v70l-20 20-20 20-97-1h-98l23-11zm137-23 25-24v-19c0-37-30-58-77-53l-13 1v44c0 24 3 51 6 60l6 16h15c7 0 25-11 38-25zm84 22 23-11 49-73 49-72v-98l-22-11-23-11h70l69-1-22 16-22 15v96l44 68 44 68 23 13 24 13h-120l23-9c12-5 22-12 22-16 0-9-60-104-66-104-2 0-19 24-39 53l-35 52 17 13 17 12-75-1h-74l24-12zM472 1165v-30l5 18c2 9 2 23 0 30l-5 12v-30zm1926-85 4-60h33v120h-40l3-60zm67 0v-60h23l-5 48-4 47 41-47c46-52 60-59 60-28v19l25-25 25-25 48 4 47 4-5 9c-3 5-8 8-12 7-5-2-8 3-8 10l-1 12-14-18-13-19-18 4-18 3-12 24-12 24 7 20c5 12 15 26 24 31l17 11 21-13 21-14-4 14-5 13-31 3-32 3-26-26-27-27 5 26 5 26h-33l3-37 4-38-33 38-33 37h-30v-60zm-1955-32c0-10-1-21-2-25-1-5 7-9 18-10l19-3-12 6c-7 3-13 10-13 15v10l9-5 9-6 4 18 5 18h-37v-18z"/>
    </g>
    <g fill="#899f8b" transform="matrix(.1 0 0 -.1 0 300)">
      <path d="M297 1983c-4-3-7-72-7-153v-146l21-22 20-23-4-12-4-12-16 30-17 30 2-62 1-62 7 4c8 5 40-32 40-48 1-6 7-23 15-37l14-25 1 38v38l-15 37-15 37 14-19 15-18 7 37 7 37-17 36-17 36 17-15 17-14-6 44-6 44-30 44c-17 24-27 43-23 43s18-17 32-38l25-37 3 21 3 22-15 37c-20 47-20 54-1 29l14-19 1 39c0 22 2 37 5 34s6-49 6-102l1-97 25 35c13 20 26 36 29 36s-3-12-14-27c-28-40-42-90-41-142v-46l27 53c14 28 29 52 33 52s-6-24-21-52l-29-53-7-54-7-54 10 6c6 4 16 21 24 39 7 18 21 39 31 46l17 13-2 197-2 197-42 3-43 3 6-18 6-18-15 18-14 17h-30c-16 0-33-3-36-7zm127-118c-4-8-8-15-10-15s-4 7-4 15 4 15 10 15h9l-5-15zm196-225-25-8 16-1 17-1 6-22c8-30 8-202 0-222-3-9-12-16-20-16s-14-5-14-11v-11l99 4 99 3 20 18c11 10 23 30 27 44l6 26-12 29-12 28-23 6-24 6 25 20 25 19v20c0 11-5 29-10 39l-10 19-38 11c-43 11-116 12-152 0zm144-26c20-20 20-43 0-72l-15-22h-59v110h59l15-16zm13-131 13-17v-62l-12-16c-7-8-22-18-34-20l-21-5-17 9-16 9v132l37-6 38-7 12-17zm63 158c0-5 9-11 20-14l20-5v-211l23-27 24-28 60-4 59-4 30 25 29 25 3 116 4 116h58v-260h-15c-8 0-15-4-15-10v-10h120v9c0 5-9 11-20 14l-20 5v54c0 59 4 70 26 61l15-6 35-68 34-69h80v10c0 6-6 10-14 10h-14l-37 65-37 66 26 20 26 20v66l-21 19-21 19-134 3-134 4v-10c0-5 9-12 20-15l20-5v-210l-17-21-18-22-37-5-37-6-25 25-26 26v213l20 5c11 3 20 9 20 14v9H840v-9zm454-33c9-12 16-32 16-45v-22l-16-15-15-16h-59v53c0 60 4 67 36 67h23l15-22zm185 19-44-23-23-47-24-46 6-29c4-15 16-43 27-60l19-33 43-19 42-20h36c20 0 50 5 66 11l31 10 4 30c3 16 3 29 1 29-3 0-19-16-37-35l-33-35h-22c-12 0-35 7-50 15l-28 14-17 35-16 34v84l17 35 16 35 35 15 35 14 24-6c14-3 36-18 49-32l24-26v53l-26 10c-14 6-45 10-68 10h-43l-44-23zm219 6 22-15v-248h-14c-8 0-18-4-21-10l-6-10 68 1h68l-22 16-23 15v118h130v-130h-15c-8 0-15-4-15-10v-10h120v9c0 5-9 11-20 14l-20 5v244l20 5c11 3 20 9 20 14v9h-120v-10c0-5 7-10 15-10h15v-110h-130v102l20 5c11 3 20 9 20 14v9l-67-1h-68l23-16zm312 9c0-6 9-12 20-15l20-5v-244l-20-5c-11-3-20-9-20-15v-9l107 3 107 3 7 33c8 39 4 40-27 6l-24-25-38 3-37 3-3 63-3 62h69l15-22 16-23v55l1 54-16-22-15-22h-69v110h71l25-25 25-25 5 15c3 7 4 22 2 32l-3 18-108 3-107 3v-9zm240-2v-10h40v-258l-22-8-23-8 99-3c55-2 106-1 113 1l13 5v65l-28-27-28-27h-62l-6 16c-3 9-6 65-6 126v110l20 5c11 3 20 9 20 14v9h-130v-10zm230 0c0-5 7-10 15-10h15v-260h-15c-8 0-15-5-15-10v-11l103 3 102 3 3 35 4 35-26-28-25-27h-60l-11 19-10 20v95c0 103 5 126 26 126 8 0 14 5 14 10v10h-120v-10zm-2039-97c-12-14-28-50-37-79l-15-53 3-43 3-43 38-3 37-3v125c0 69-2 126-4 126-3 0-14-12-25-27zm-151-113v-110h80v101l-30 59c-17 33-35 60-40 60h-10v-110zm-4-129c-4-5-6-33-5-61l2-52 16 26 15 25 29 12 28 12-3 21-3 21-37 3-36 3-6-10zm112 4-6-7 9-27 10-27 28-17c16-9 32-17 36-17 3 0 5 21 3 48l-3 47-35 3c-20 2-39 0-42-3zm220-5 22-9v-236l-8-11c-4-6-14-14-22-17l-15-5 55-1h55l-22 9-23 9v95c0 52-3 101-6 110l-6 16 8-1c5 0 54-56 108-125 54-68 103-124 107-124h8l3 143 3 142h50l5-117 5-117 17-17 16-16 42-8 41-8 36 8c20 5 43 16 52 24l15 16 6 118 5 117h50l3-128 3-127-23-10-23-9h140l-22 9-23 9v122l17-3 17-3 37-65 36-65 44-3 43-3-22 18c-12 10-37 44-56 76l-35 57h10c5 0 18 9 29 20l20 20v59l-22 21-22 20-135-1h-136l23-10 24-9-4-116-3-116-19-14-20-14h-76l-20 20-20 20v221l23 9 22 9-115-1c-63 0-105-3-93-5l22-4 6-32c3-18 5-63 3-101l-3-69-83 107-83 106-47-1h-47l23-9zm732-20 20-20v-50l-21-21-20-20-22 3-22 3-3 49c-2 27-1 55 2 62l5 14h41l20-20zm151 4-21-27v-54l23-20c12-11 41-30 64-42l42-21 6-20 6-20-6-20-6-20-24-6c-13-3-31-4-41-2l-18 3-23 34-23 34v-73l27-6c15-4 40-7 56-7h28l27 20 27 20 9 32 9 32-20 27-20 27-49 25-49 25-3 23-4 23 12 15 12 14h57l18-32 17-33 4 23c2 13 1 30-2 38l-5 14h-110l-20-26zm177 16 22-9v-250l-17-10-18-11 110 3 110 2 3 35 3 35-23-27-23-28-31-6-31-6-16 17-17 16v100l15 5c8 4 27 3 41 0l26-7 5-19c3-11 9-20 14-20h9v104l-21-23-21-22-31 3-32 3-3 46-3 46 15 12 15 12 36-10 37-10 14-18 13-18 1 33v32l-112-1h-113l23-9zm250 0 22-9v-252l-22-9-23-9h140l-22 9-23 9v122l17-3 17-3 37-65 36-65 44-3 43-3-22 18c-12 10-37 44-56 76l-35 57h10c5 0 18 9 29 20l20 20v59l-22 21-22 20-95-1h-96l23-9zm143-21 20-20-3-32-3-31-26-15-26-14-16 6-17 6v54c0 58 4 67 32 67h18l21-21zm79 18 25-13 48-69 47-69v-107l-22-9-23-9h140l-22 9-23 9v116l44 64 45 65 23 12 23 13-55-1c-30 0-47-2-37-5 24-6 21-22-16-82l-33-52-37 55c-42 63-44 73-19 79 9 3-17 5-58 6l-75 1 25-13zm-1825-82c-8-14-22-36-30-50l-15-24v-73l13 5 12 4v26c0 14 3 29 8 33 4 4 7 18 7 31v23h10c6 0 10 7 10 15s5 15 10 15c6 0 10 5 10 10 0 19-19 10-35-15zm95-4 11-21 3-75 4-75h-7c-9 0-11 16-11 88l-1 52h-18l5 14 5 14-11 7-10 6v-28c1-43-6-125-15-155l-7-28h81l15 16 16 15v32l-1 32-14 19-14 19 5 9c3 5 3 20 0 33l-6 24-21 11-21 12 12-21zm-78-35c-6-13-14-44-17-70l-7-46-8 5c-4 3-13-1-19-9l-12-14 16-16c9-9 25-16 35-16h19l9 18c5 9 10 37 10 62 1 25 2 52 3 60 7 51-11 66-29 26zm2063-96v-60h23l4 60 3 60h-30v-60zm65 0v-60h15l-3 52-3 53 24-30c14-16 34-41 45-55l21-25 1 23c0 12-3 22-7 22-5 0-21 18-37 40l-30 40h-26v-60zm90 49v-10l10 6c6 3 10 8 10 11 0 2-4 4-10 4-5 0-10-5-10-11zm110 7c0-2 7-9 15-16l15-12v10c0 5-7 12-15 16-8 3-15 4-15 2zm-62-17-18-10v-68l22-15c32-23 42-20 17 5l-21 21 6 31c4 17 12 35 19 39l12 8h-10c-5-1-18-5-27-11zm72-94-13-15 17 6c9 3 16 10 16 15 0 13-6 11-20-6zm30-6v-10l10 6c6 3 10 8 10 11 0 2-4 4-10 4-5 0-10-5-10-11z"/>
    </g>
    <g fill="#648267" transform="matrix(.1 0 0 -.1 0 300)">
      <path d="M297 1983c-4-3-7-69-7-145v-139l11-20 10-20 10 6 9 6 1-8c4-38 8-52 22-78l16-30 1 56v56l-28 39c-15 21-32 46-36 54l-7 15 13-16c7-8 25-31 40-50l28-34v25c0 29-34 107-57 132-9 10-14 21-10 24 3 3 18-13 33-35 14-23 29-41 31-41 10 0-9 75-23 98l-14 22h9c5 0 11-6 14-12l4-13 8 7 7 7-7 50-7 51h-32c-18 0-36-3-39-7zm97-6c-3-8-3-45-2-83l4-69 8 32 8 32 15-6 15-6-9-6c-14-10-43-80-43-103v-22l31 34 30 35-26-47-26-47-6-58-5-58 21 33c12 18 21 36 21 41 0 4 9 16 20 26l21 19-3 130-3 131-33 3-32 3-6-14zm44-318-28-46-10-53c-12-64-7-73 16-29 9 18 25 40 36 48l19 16-3 55-3 55-27-46zm-148-34v-35l18-30 19-30 6 7 7 6v-24c1-13 7-35 15-49l14-25 1 35v36l-35 72c-19 40-37 72-40 72s-5-16-5-35zm360 16-55-6 23-7 22-6v-240l-22-14-22-15 95 2 95 2 20 11 21 11 13 32 14 32-15 26c-8 14-24 30-35 36l-21 10 23 18 24 18v22c0 12-4 27-8 33-11 17-49 34-74 33l-23-1 15-5c22-8 40-34 40-58v-22l-19-17-19-17-29 3-28 3-3 47-3 46 23 16c12 9 18 15 13 14-6-1-35-4-65-7zm120-149 22-18 1-38 1-39-23-18c-25-21-48-24-70-10l-14 9-5 51c-2 27-2 57 1 66l6 15h59l22-18zm330 147c-25-3-37-7-27-7l17-2v-229l-26-20-27-21h-24c-27 0-64 17-75 34l-8 11v224l18 4c9 3-10 5-43 5s-52-2-42-5l17-4v-220l24-24 24-24 36-6 36-7 34 6 33 6 18 21 19 20 4 114 5 115h57v-253l-15-11-16-11 62-1 61-1-21 17-22 16 3 54 3 55h30l31-58c39-73 45-79 87-82l35-2-25 26c-13 14-38 50-54 79l-29 52h13c8 0 21 8 30 18l17 19v22c0 12-5 31-10 41l-10 19-37 10-37 11-10-10-10-10h16c9 0 24-7 32-16l16-15v-65l-12-12-12-12h-66v118l13 5c21 7-85 12-133 6zm402-1-32-11-35-39-35-38v-93l20-33 21-33 45-22 46-22 50 6c28 4 56 12 64 18l14 11v49l-31-36-31-35h-64l-22 16c-12 8-29 29-38 46l-16 31v94l16 31 16 32 30 15c16 8 41 15 55 15h27l29-29 29-29v23c0 31-9 36-73 40l-52 4-33-11zm188 0c0-5 7-8 15-8h15v-260h-15c-8 0-15-3-15-7v-8h110v8c0 4-7 7-15 7h-15v130h140v-118l-21-13-20-14h122l-20 14-21 13v237l17 9 17 10-57 3c-57 4-76-4-36-14l20-5-3-49-3-48-67-3-68-3v110l18 4 17 4-58 4-57 4v-7zm343-9 17-10v-237l-21-13-20-14h216l3 35 4 35-22-28-22-28-42 3-41 3-3 63-3 62h69l15-22 16-23v100l-13-17-13-18h-73v110h80l20-20 20-20v50h-102l-103-1 18-10zm240 4 17-4v-259h-15c-8 0-15-3-15-7v-8h195l7 10c4 6 8 21 8 34v24l-27-27-27-27-35 3-36 3-3 127-3 126 18 5c10 3-9 5-42 5s-52-2-42-5zm217 0c8-3 18-11 22-17l8-11v-214l-19-18-19-18 101 1 102 2 3 31 3 31-25-25-25-25h-69l-6 16c-3 9-6 65-6 125v110l23 9 22 9h-65l-65-1 15-5zm-2050-95c-27-44-50-122-50-170v-38h80v120c0 66-2 120-5 120s-14-15-25-32zm-150-102v-106h80v78l-24 54c-13 29-31 60-40 67l-16 13v-106zm328-136 22-9v-252l-22-9-23-9h110l-21 9-21 8-7 48c-3 26-6 75-6 110v64h8c4 0 52-56 107-124l100-124 8 5 9 6-6 126-7 126 9 13 9 14 24-4 24-3 6-120c4-66 7-121 8-122 0-1 14-9 31-18l29-15h107l22 20 22 21v214l9 13 8 14 24-4 24-3 3-132 3-131-18-5c-10-3 11-5 47-5l65-1-22 9-23 9v121h36l38-70 37-70 42 1h42l-17 7-18 7-39 68-40 67 22 11c29 16 37 28 37 61v27l-26 20-27 21-131-1h-131l23-9 22-9v-221l-20-20-20-20h-87l-16 18-17 19v224l23 9 22 9-115-1c-63 0-105-3-93-5l23-4 5-22c3-12 5-58 3-102l-3-80-84 108-84 107-46-1h-46l23-9zm732-20 20-20v-53l-17-19-16-18h-57v58c0 64 4 72 32 72h18l20-20zm155 5-25-24v-52l23-20c12-12 43-34 70-50l47-29v-58l-14-11-15-12-33 3-32 3-23 34-23 34v-71l16-6c9-3 36-6 60-6h45l24 25 25 24v79l-16 13c-9 8-38 25-63 39l-46 25-3 33-3 32 23 9 23 10h-18l-18 1-24-25zm93 10c12-9 22-23 22-31s5-14 11-14h10l-3 28-3 27-30 3-30 3 23-16zm82 8c8-3 18-11 22-17l8-11v-220l-8-11c-4-6-14-14-22-17l-15-5 106-1 107-1 6 16c3 9 6 24 6 34v18l-29-29-29-29h-60l-11 14-12 14 3 54 3 53 32 3 31 3 16-23 16-22v16c0 8 3 31 6 49l7 34-23-23-22-23-31 3-32 3v110l44-1 44-1 19-23 18-22v62l-107-1-108-1 15-5zm253 0 17-4v-268l-17-4c-10-3 11-5 47-5l65-1-22 9-23 9v121h35l38-70 38-70 42 1h42l-17 7-18 7-39 68-40 67 22 11c29 16 37 28 37 61v27l-26 20-27 21-86-1c-47-1-78-3-68-6zm137-23 20-20v-53l-17-19-16-18h-57v58c0 64 4 72 32 72h18l20-20zm87 15c12-8 42-44 67-79l46-65v-110l-17-10-18-10h130l-22 9-23 9v116l46 68 45 68 22 9 22 9-55-1c-30 0-47-2-37-5l17-4v-14c0-13-59-115-66-115s-74 105-74 117c0 6 8 14 18 16 9 3-14 5-53 6l-69 1 21-15zm-1867-30v-35l27 11c36 13 53 28 53 45v14h-80v-35zm110 16v-20l33-25c19-15 37-26 40-26 4 0 7 20 7 45v45h-80v-19zm-70-56c-6-8-10-19-8-24l3-9 18 24 18 24h-9c-5 0-15-7-22-15zm61-21 1-19 5 13c3 7 2 16-1 19-3 4-6-2-5-13zm35-12c4-15 10-31 14-35l8-9 5 9c9 15-3 51-19 57l-14 5 6-27zm-88-55c-10-30-18-61-18-70v-16l-16 6-16 6 4-19 3-19 34-3 34-3-6 20-5 21 9 6c5 3 9 15 9 27v22l-10-15-10-15v17c0 9 4 19 10 23l9 6-2 29c-1 17-4 30-7 30s-13-24-22-53zm60 26c-3-4-6-27-6-50-1-22-6-53-12-67l-10-26h89l11 21c6 11 10 30 8 42l-3 22h-40l3-32 3-31-10-7-11-6-1 18c-1 10-1 24 0 31 1 6-3 12-8 12h-10l11 31 10 31-10 10-10 10-4-9zm-108-49v-45l10 6 11 7-6 18-6 19 11 21 11 20h-31v-46zm2115-34v-60h25v120h-25v-60zm112 0 48-60 3 10c5 14-70 109-86 110h-13l48-60zm90 32c-10-10-17-28-17-40v-21l16-15c22-22 24-20 11 13l-11 30 12 25c14 31 11 33-11 8z"/>
    </g>
    <g fill="#34603e" transform="matrix(.1 0 0 -.1 0 300)">
      <path d="m302 1978-12-12v-135l1-136 12-16c7-9 17-17 22-17l10-2 1-24c1-13 8-34 17-47l17-23v92l-35 52c-44 66-44 77 0 25l35-40v63l-35 51-34 52 17-3 17-3 14-30 14-30 4 22 4 22-16 31-16 32 6 6 6 6 9-14 10-15v105h-56l-12-12zm94-4c-3-9-6-43-5-77l1-62 11 28 11 27h13c7 0 13-4 13-10 0-5-3-10-8-10-7 0-42-88-42-106 0-4 14 5 30 21 34 33 39 27 10-13-20-28-40-98-39-142v-25l19 35c11 19 19 42 20 51v17l20 5 20 5v248l-12 12c-7 7-22 12-34 12h-22l-6-16zm36-336-33-67 3-33 4-33 10 35c6 19 13 33 17 30s14 5 22 17l16 23-3 47-3 48-33-67zm-142-6v-34l17-29c10-16 21-29 25-29s8-8 8-17c1-10 7-29 15-43l14-25 1 20c0 34-19 88-50 140l-30 50v-33zm1268 11c6-2 18-2 25 0l12 5h-50l13-5zm-934-16 17-13-3-127-3-127h69l-12 12-12 12v112l12 12 12 12h-26l4 60 3 60h-79l18-13zm139-4 18-21-3-33-3-34-25-12-25-13h13c7 0 24-11 37-25l25-24v-48l-21-27-20-26h14c8 0 26 9 41 21l26 20v69l-20 20c-11 11-28 20-37 20l-18 1 27 14 27 15 6 20 7 21-16 24c-9 14-20 25-25 25s-18 3-28 7l-18 6 18-20zm117-95 6-113 12-22 12-22 41-11c22-6 50-9 62-7l22 4-31 2-32 1-23 19-23 19-4 99-4 100 11 22 12 21h-66l5-112zm208-3 3-114-11-23-11-23 15 19 16 20v212l12 12 12 12h-39l3-115zm80 103 12-12v-232l-12-12-12-12h69v280h-69l12-12zm120-4 22-15v-79l-25-16-24-16 34-69 35-69h63l-15 18c-8 9-29 42-48 72l-32 54 12 4c7 3 21 13 32 24l20 20-6 30-6 31-18 13c-9 7-28 14-42 14h-24l22-16zm184-4-32-20-20-32-20-33v-70l20-33 20-32 32-20c18-11 38-20 44-20h12l-33 33-32 32-7 42-7 41 11 40 10 41 31 25 31 26h-14c-7 0-28-9-46-20zm158-5c26-28 35-27 25 4l-6 21h-42l23-25zm85-115v-140h60v280h-60v-140zm183 127 10-12 1-115v-114l-11-13-10-13h67l-3 132-3 131 13 8 13 9h-87l10-13zm147-127v-140h76l-15 16-16 15v109h24l-12 12-12 12v92l12 12 12 12h-69v-140zm117 133 28-4 15-22 15-21v54l-42-1-43-2 27-4zm123-133v-140h77l-11 14-12 14 3 126 3 126h-60v-140zm223 128 12-12v-232l-12-12-12-12h88l-12 12-12 12v244l13 5c6 3-8 6-32 6l-45 1 12-12zM434 1524l-27-46-5-74-5-74h73v120c0 66-2 120-5 120-2 0-16-21-31-46zm1737-1-24-23h33l1-12c0-7 5 2 10 21 6 18 9 34 7 35s-14-8-27-21zm-1881-87v-106h80v75l-29 61c-16 34-34 65-40 68l-11 7v-105zm1361-14c0-7-12-24-26-37l-24-25h13c6 0 20 6 30 13l18 13-5 25c-2 13-5 18-6 11zm801-23c-7-11-23-24-35-29l-22-9h31l32-1 6 26c9 34 4 39-12 13zm-238 0c-5-9-18-21-29-27l-20-11 28-1h28l5 15c3 8 4 20 2 27l-4 12-10-15zm443-15-28-24h52l5 15c3 8 4 19 2 24l-3 10-28-25zm-1104-31c9-2 23-2 30 0l12 5h-60l18-5zm-935-50 22-4v-258l-17-10-18-10h45l45 1-17 5-18 4-5 22c-3 12-5 67-3 122l3 100 105-130 105-130 5 140 5 140h60l5-112 5-113 20-19c11-11 34-23 50-27l30-7-30 25-30 26-4 91c-1 51 0 102 3 116l6 24 18 4c9 3-30 5-88 5l-105 1 23-9 22-9v-206l-18 22c-9 12-48 62-87 112l-70 91-45-1-45-2 23-4zm510-3 22-9v-224l-17-21-18-21 22 19 22 19 3 116 3 116 29 3 29 4 8-14 9-13v-220l-8-11c-4-6-14-14-22-17l-15-5h60c33 0 52 2 43 5l-18 4v129h39l37-70 36-70h72l-17 13c-10 7-33 39-51 72l-33 60 29 26 28 27v20c0 11-9 30-19 43l-19 24-139 2-138 3 23-10zm224-17 18-16v-66l-16-15-15-16h-59v130h53l19-17zm166 13c-10-7-21-24-26-37l-9-24 9-26 9-26 42-23c23-13 50-30 60-38l17-15v-53l-12-12c-7-7-9-12-5-12 3 0 15 10 27 22l20 22v67l-26 24c-14 13-36 27-48 31-27 8-66 44-66 61 0 7 9 22 20 33 22 22 14 26-12 6zm78 7c6-4 16-17 23-28l12-20-3 25-3 25-20 3-20 3 11-8zm92-3 22-9v-252l-22-9-23-9h108l107-1v14c0 8 3 23 7 33l6 18-26-27-26-28h-67l-12 12-12 12v116h81l9-22 9-23v40l1 39-12-12-12-12h-77l3 58 3 57 37 3 38 3 25-25 25-25v59l-107-1h-108l23-9zm242 3c8-3 18-11 22-17l8-11v-220l-8-11c-4-6-14-14-22-17l-15-5 60-1h60l-17 10-18 10v119h40l35-70 35-70h74l-17 13c-10 7-33 39-51 72l-33 60 29 26 28 27v20c0 11-9 30-19 43l-19 24-94 2-93 3 15-7zm142-20 18-16v-76l-19-11c-11-5-31-10-45-10h-26v130h53l19-17zm80 20 18-4 55-79 55-78v-44c0-47-7-62-30-71l-15-5 60-1h60l-17 10-18 10v120l40 59c22 32 50 66 62 74l22 16-49-1h-50l23-9 23-10-12-22c-21-40-61-98-68-98-6 0-81 113-81 123 0 3 8 8 18 10 9 3-12 5-48 5s-57-2-48-5zm-1862-33v-30h15c8 0 15 5 15 10v10h38l5 20 5 20h-78v-30zm110 21c0-23 15-43 41-57l29-15v81h-70v-9zm30-97v-15l10 6 10 6-5 10c-9 14-15 11-15-7zm-29-46c0-9-4-25-7-35l-6-18 12 18 11 18-4 17-5 17-1-17zm-111-18c0-11 2-20 4-20s6 9 9 20l5 20h-9c-5 0-9-9-9-20zm52 8-12-12v-77l-17 3-18 3v-30l24-3 23-4 11 11 11 11h-25l15 22c9 12 16 26 16 31v9l-16-13-17-14 8 25c4 14 12 31 17 38l10 12h-9c-5 0-14-5-21-12zm2071-63v-60l4 33c2 18 2 45 0 60l-4 27v-60zm108 5c23-28 44-48 47-46 6 6-70 96-81 96-4 0 11-23 34-50zm81 28c-7-7-12-22-12-33v-22l22-19 23-19-14 17-13 18 4 35c2 19 4 35 3 35s-6-5-13-12zm-1121-35-1-32 19-11c11-5 26-10 33-10h13l-22 18c-12 9-27 28-32 42l-10 25v-32zm-1027 2 5-15h-17l5-20 5-20 9 6c5 3 9 18 9 35v29h-22l6-15zm-57-9c-4-10-7-24-7-32v-14h30l-1 13c0 6-4 21-8 31l-8 20-6-18z"/>
    </g>
  </g>
</svg>